<svg width="1254" height="1254" viewBox="0 0 1254 1254" fill="none" xmlns="http://www.w3.org/2000/svg">
  <defs>
    <linearGradient id="payment_outer" x1="201" y1="172" x2="1064" y2="1083" gradientUnits="userSpaceOnUse">
      <stop stop-color="#DFF8F6"/>
      <stop offset="0.45" stop-color="#74D5D8"/>
      <stop offset="1" stop-color="#0B8C93"/>
    </linearGradient>
    <linearGradient id="payment_inner" x1="301" y1="236" x2="944" y2="1020" gradientUnits="userSpaceOnUse">
      <stop stop-color="#F8FEFF"/>
      <stop offset="0.34" stop-color="#E9F8FB"/>
      <stop offset="1" stop-color="#CBEDEF"/>
    </linearGradient>
    <linearGradient id="payment_card" x1="372" y1="388" x2="866" y2="805" gradientUnits="userSpaceOnUse">
      <stop stop-color="#FDFEFF"/>
      <stop offset="0.48" stop-color="#EEF8FA"/>
      <stop offset="1" stop-color="#DBF4F3"/>
    </linearGradient>
    <linearGradient id="payment_card_top" x1="393" y1="414" x2="876" y2="414" gradientUnits="userSpaceOnUse">
      <stop stop-color="#32B3BA"/>
      <stop offset="1" stop-color="#0A8C93"/>
    </linearGradient>
    <linearGradient id="payment_shield" x1="754" y1="653" x2="1048" y2="992" gradientUnits="userSpaceOnUse">
      <stop stop-color="#BFF6F4"/>
      <stop offset="0.26" stop-color="#33B8BE"/>
      <stop offset="1" stop-color="#0A808A"/>
    </linearGradient>
    <linearGradient id="payment_plus" x1="568" y1="493" x2="675" y2="634" gradientUnits="userSpaceOnUse">
      <stop stop-color="#A8F0EC"/>
      <stop offset="1" stop-color="#0D9AA0"/>
    </linearGradient>
    <filter id="shadow_soft" x="108" y="110" width="1038" height="1038" filterUnits="userSpaceOnUse" color-interpolation-filters="sRGB">
      <feFlood flood-opacity="0" result="BackgroundImageFix"/>
      <feColorMatrix in="SourceAlpha" type="matrix" values="0 0 0 0 0 0 0 0 0 0 0 0 0 0 0 0 0 0 127 0" result="hardAlpha"/>
      <feOffset dy="18"/>
      <feGaussianBlur stdDeviation="28"/>
      <feColorMatrix type="matrix" values="0 0 0 0 0.0509804 0 0 0 0 0.301961 0 0 0 0 0.317647 0 0 0 0.16 0"/>
      <feBlend mode="normal" in2="BackgroundImageFix" result="effect1_dropShadow_0_1"/>
      <feBlend mode="normal" in="SourceGraphic" in2="effect1_dropShadow_0_1" result="shape"/>
    </filter>
    <filter id="card_shadow" x="325" y="319" width="625" height="621" filterUnits="userSpaceOnUse" color-interpolation-filters="sRGB">
      <feFlood flood-opacity="0" result="BackgroundImageFix"/>
      <feColorMatrix in="SourceAlpha" type="matrix" values="0 0 0 0 0 0 0 0 0 0 0 0 0 0 0 0 0 0 127 0" result="hardAlpha"/>
      <feOffset dy="16"/>
      <feGaussianBlur stdDeviation="18"/>
      <feColorMatrix type="matrix" values="0 0 0 0 0.0588235 0 0 0 0 0.372549 0 0 0 0 0.388235 0 0 0 0.14 0"/>
      <feBlend mode="normal" in2="BackgroundImageFix" result="effect1_dropShadow_0_1"/>
      <feBlend mode="normal" in="SourceGraphic" in2="effect1_dropShadow_0_1" result="shape"/>
    </filter>
    <filter id="shield_shadow" x="671" y="594" width="414" height="435" filterUnits="userSpaceOnUse" color-interpolation-filters="sRGB">
      <feFlood flood-opacity="0" result="BackgroundImageFix"/>
      <feColorMatrix in="SourceAlpha" type="matrix" values="0 0 0 0 0 0 0 0 0 0 0 0 0 0 0 0 0 0 127 0" result="hardAlpha"/>
      <feOffset dy="18"/>
      <feGaussianBlur stdDeviation="24"/>
      <feColorMatrix type="matrix" values="0 0 0 0 0.0392157 0 0 0 0 0.286275 0 0 0 0 0.301961 0 0 0 0.18 0"/>
      <feBlend mode="normal" in2="BackgroundImageFix" result="effect1_dropShadow_0_1"/>
      <feBlend mode="normal" in="SourceGraphic" in2="effect1_dropShadow_0_1" result="shape"/>
    </filter>
  </defs>

  <g filter="url(#shadow_soft)">
    <circle cx="627" cy="609" r="457" fill="url(#payment_outer)"/>
    <circle cx="627" cy="609" r="446" stroke="white" stroke-opacity="0.72" stroke-width="16"/>
    <circle cx="627" cy="609" r="396" fill="url(#payment_inner)"/>
    <path d="M262 734C262 507.042 446.042 323 673 323H932C955.196 323 974 341.804 974 365V854C974 877.196 955.196 896 932 896H627C426.448 896 262 734.552 262 534V734Z" fill="url(#payment_inner)" fill-opacity="0.76"/>
  </g>

  <g filter="url(#card_shadow)">
    <rect x="361" y="367" width="519" height="487" rx="74" fill="url(#payment_card)"/>
    <rect x="379" y="385" width="483" height="451" rx="58" stroke="white" stroke-opacity="0.92" stroke-width="12"/>
    <rect x="393" y="410" width="455" height="96" rx="44" fill="url(#payment_card_top)"/>
    <circle cx="476" cy="598" r="28" fill="#A7ECEA"/>
    <path d="M536 588H768" stroke="#B6C9D0" stroke-width="26" stroke-linecap="round"/>
    <circle cx="476" cy="687" r="28" fill="#A7ECEA"/>
    <path d="M536 677H742" stroke="#B6C9D0" stroke-width="26" stroke-linecap="round"/>
    <path d="M536 771H675" stroke="#B6C9D0" stroke-width="26" stroke-linecap="round"/>
  </g>

  <rect x="546" y="486" width="158" height="158" rx="42" fill="url(#payment_plus)"/>
  <rect x="605" y="520" width="40" height="92" rx="20" fill="white"/>
  <rect x="579" y="546" width="92" height="40" rx="20" fill="white"/>

  <g filter="url(#shield_shadow)">
    <path d="M874 646C918 683 974 706 1029 711C1033 747 1035 855 961 944C877 940 780 857 746 730C798 722 850 693 874 646Z" fill="url(#payment_shield)"/>
    <path d="M872 667C909 697 952 715 997 721C999 757 998 829 949 894C891 886 823 827 796 741C835 734 865 710 872 667Z" stroke="white" stroke-opacity="0.46" stroke-width="12" stroke-linejoin="round"/>
    <path d="M812 799L865 850L960 752" stroke="white" stroke-width="38" stroke-linecap="round" stroke-linejoin="round"/>
  </g>

  <ellipse cx="563" cy="254" rx="245" ry="78" fill="white" fill-opacity="0.28" transform="rotate(-13 563 254)"/>
  <ellipse cx="809" cy="928" rx="188" ry="44" fill="#0B5055" fill-opacity="0.12" transform="rotate(-12 809 928)"/>
</svg>
